<svg width="289" height="40" viewBox="0 0 289 40" fill="none" xmlns="http://www.w3.org/2000/svg">
<path fill-rule="evenodd" clip-rule="evenodd" d="M11.0753 28.7333C12.344 28.7333 13.3764 29.7654 13.3764 31.0341C13.3764 32.0989 12.6485 32.9943 11.665 33.2557C11.6351 33.2636 11.6051 33.2722 11.5748 33.2789C11.4137 33.3147 11.2471 33.3351 11.0753 33.3351C9.95702 33.3351 9.02338 32.5324 8.81764 31.4731C8.79013 31.3309 8.77454 31.1845 8.77454 31.0341C8.77454 29.7654 9.80692 28.7333 11.0753 28.7333ZM11.1865 35.7753C12.5408 35.7435 13.7538 35.1425 14.6 34.2021C14.8929 33.8765 15.1405 33.5112 15.3353 33.1141C15.6437 32.485 15.822 31.7809 15.822 31.0341C15.822 28.4169 13.6924 26.2876 11.0752 26.2876C9.37666 26.2876 7.88816 27.1873 7.04899 28.5324C6.94107 28.7058 6.84325 28.8858 6.75795 29.0732C6.48495 29.6718 6.32874 30.3346 6.32874 31.0341C6.32874 31.6675 6.45561 32.2713 6.68183 32.8243C6.72035 32.9181 6.76407 33.0089 6.80839 33.0997C7.12052 33.7417 7.57053 34.3039 8.12356 34.7448C8.32991 34.9092 8.54911 35.0578 8.78114 35.1865C9.46196 35.5641 10.2434 35.7808 11.0752 35.7808C11.1128 35.7808 11.1492 35.7759 11.1865 35.7753Z" fill="#40CDA0"/>
<path fill-rule="evenodd" clip-rule="evenodd" d="M18.2377 1.02402C8.18132 1.02402 0 9.234 0 19.3256C0 25.5119 3.07734 30.987 7.7734 34.3014C7.24099 33.8755 6.80776 33.3323 6.50727 32.7121C6.2415 32.4265 5.99605 32.1226 5.7709 31.8028C3.65096 29.4285 2.35863 26.2955 2.35863 22.8644C2.35863 22.2968 2.39806 21.7386 2.46664 21.1893C2.39542 20.5773 2.35451 19.9565 2.35451 19.3256C2.35451 10.5371 9.47983 3.38677 18.2377 3.38677C26.9956 3.38677 34.1206 10.5371 34.1206 19.3256C34.1206 26.9544 28.7512 33.345 21.6064 34.9C19.8294 35.7784 17.8324 36.2743 15.7216 36.2743C13.9543 36.2743 12.2676 35.9252 10.7221 35.297C10.6862 35.2976 10.6512 35.3023 10.615 35.3023C9.81417 35.3023 9.06191 35.0929 8.40647 34.7281C11.2457 36.5596 14.6188 37.6272 18.2377 37.6272C28.2938 37.6272 36.4751 29.417 36.4751 19.3256C36.4751 9.234 28.2938 1.02402 18.2377 1.02402Z" fill="#F2F2F2"/>
<path fill-rule="evenodd" clip-rule="evenodd" d="M17.6262 34.515C19.732 32.9285 21.0958 30.4136 21.0958 27.5868C21.0958 22.7992 17.1851 18.904 12.3782 18.904C8.65024 18.904 5.46304 21.2472 4.21899 24.5321C4.39008 26.3669 5.00622 28.0736 5.95788 29.5471C6.04206 29.3629 6.13862 29.1859 6.24513 29.0155C6.13741 28.5557 6.07435 28.079 6.07435 27.5868C6.07435 24.1249 8.90219 21.3083 12.3782 21.3083C15.8541 21.3083 18.682 24.1249 18.682 27.5868C18.682 30.3352 16.8972 32.6709 14.4236 33.5196C14.2314 33.91 13.987 34.2692 13.6979 34.5892C14.2706 34.6785 14.8569 34.726 15.4543 34.726C16.1972 34.726 16.9229 34.6521 17.6262 34.515Z" fill="#F2F2F2"/>
<path fill-rule="evenodd" clip-rule="evenodd" d="M5.27405 31.5616C5.59656 31.9327 5.94816 32.2852 6.32885 32.6164C6.26772 32.5147 6.20743 32.413 6.15431 32.3078C5.8512 32.0666 5.55735 31.8186 5.27405 31.5616Z" fill="#F2F2F2"/>
<path fill-rule="evenodd" clip-rule="evenodd" d="M6.08278 33.0715C5.86789 32.5462 5.74738 31.9727 5.74738 31.371C5.74738 30.7065 5.89577 30.077 6.15509 29.5084C5.23919 28.0846 4.64621 26.4354 4.48155 24.6626C4.45077 24.3292 4.43277 23.9921 4.43277 23.6506C4.43277 17.6612 9.30528 12.7887 15.2946 12.7887C21.2837 12.7887 26.1565 17.6612 26.1565 23.6506C26.1565 28.9247 22.377 33.3311 17.3849 34.3086C16.708 34.441 16.0096 34.5124 15.2946 34.5124C14.7197 34.5124 14.1554 34.4666 13.6043 34.3803C12.8005 35.2736 11.6482 35.8445 10.3617 35.8747C11.8866 36.4923 13.5508 36.8356 15.2946 36.8356C17.3773 36.8356 19.3477 36.348 21.1011 35.4844C25.4671 33.3334 28.4797 28.8379 28.4797 23.6506C28.4797 16.3803 22.5649 10.4655 15.2946 10.4655C8.58249 10.4655 3.02988 15.5082 2.21619 22.0035C2.14853 22.5436 2.10962 23.0924 2.10962 23.6506C2.10962 27.0241 3.38474 30.1046 5.47644 32.439C5.67158 32.6568 5.87399 32.8671 6.08278 33.0715Z" fill="#F2F2F2"/>
</svg>
