<svg width="289" height="40" viewBox="0 0 289 40" fill="none" xmlns="http://www.w3.org/2000/svg">
<path fill-rule="evenodd" clip-rule="evenodd" d="M50.1603 30.5068H45.3564V10.0004H50.0363V12.7373C51.3614 10.3795 53.7634 9.41077 55.9994 9.41077C60.9274 9.41077 63.2881 13.0321 63.2881 17.5379V30.5068H58.4845V18.3796C58.4845 15.8531 57.3662 13.8321 54.343 13.8321C51.6099 13.8321 50.1603 15.9796 50.1603 18.6744V30.5068Z" fill="#F2F2F2"/>
<path fill-rule="evenodd" clip-rule="evenodd" d="M83.7157 20.4649C83.7157 16.1372 81.0419 13.9095 78.0343 13.9095C75.0683 13.9095 72.3529 16.1372 72.3529 20.4649C72.3529 24.792 75.0683 27.1057 78.0343 27.1057C81.0419 27.1057 83.7157 24.835 83.7157 20.4649ZM88.6034 20.465C88.6034 26.8915 84.1333 31.5616 78.0342 31.5616C71.9768 31.5616 67.5073 26.8915 67.5073 20.465C67.5073 14.0809 71.9768 9.41077 78.0342 9.41077C84.1333 9.41077 88.6034 14.0809 88.6034 20.465Z" fill="#F2F2F2"/>
<path fill-rule="evenodd" clip-rule="evenodd" d="M104.425 14.5886C103.896 14.5031 103.367 14.4601 102.878 14.4601C99.2143 14.4601 97.5448 16.6851 97.5448 20.5795V30.5068H92.8225V9.66775H97.4231V13.0053C98.3594 10.7374 100.558 9.41077 103.163 9.41077C103.733 9.41077 104.222 9.49633 104.425 9.53926V14.5886Z" fill="#F2F2F2"/>
<path fill-rule="evenodd" clip-rule="evenodd" d="M116.088 27.0219C119.307 27.0219 121.551 24.3786 121.551 20.4762C121.551 16.5738 119.349 14.1404 116.131 14.1404C112.912 14.1404 110.541 16.6159 110.541 20.5183C110.541 24.4204 112.743 27.0219 116.088 27.0219ZM126.294 27.0641C126.294 28.9104 126.463 30.4627 126.506 30.7983H121.805C121.721 30.3368 121.594 28.9941 121.594 28.1551C120.619 29.8754 118.46 31.302 115.537 31.302C109.609 31.302 105.628 26.6864 105.628 20.5184C105.628 14.6439 109.651 9.81863 115.453 9.81863C119.052 9.81863 120.874 11.4551 121.509 12.7557V0.419769H126.294V27.0641Z" fill="#F2F2F2"/>
<path fill-rule="evenodd" clip-rule="evenodd" d="M131.427 30.7984H136.297V10.3642H131.427V30.7984ZM133.841 0C135.62 0 137.059 1.4263 137.059 3.18879C137.059 4.95128 135.62 6.33578 133.841 6.33578C132.105 6.33578 130.665 4.95128 130.665 3.18879C130.665 1.4263 132.105 0 133.841 0Z" fill="#F2F2F2"/>
<path fill-rule="evenodd" clip-rule="evenodd" d="M145.173 20.465C145.173 24.6635 147.825 27.0199 150.899 27.0199C154.099 27.0199 155.572 24.7491 156.035 23.1641L160.33 24.7491C159.362 28.0058 156.288 31.5616 150.899 31.5616C144.878 31.5616 140.289 26.8058 140.289 20.465C140.289 14.0379 144.878 9.41077 150.773 9.41077C156.288 9.41077 159.32 12.9242 160.162 16.2659L155.783 17.894C155.32 16.0516 153.93 13.9949 150.814 13.9949C147.825 13.9949 145.173 16.2659 145.173 20.465Z" fill="#F2F2F2"/>
<path fill-rule="evenodd" clip-rule="evenodd" d="M183.782 22.264V21.3216L178.461 22.136C176.953 22.3927 175.738 23.2494 175.738 24.9634C175.738 26.3774 176.785 27.6625 178.712 27.6625C181.435 27.6625 183.782 26.3344 183.782 22.264ZM177.036 18.9653L182.274 18.151C183.447 17.9796 183.782 17.3796 183.782 16.6516C183.782 14.8949 182.609 13.4809 179.928 13.4809C177.372 13.4809 175.947 15.1519 175.738 17.2513L171.297 16.2229C171.674 12.6239 174.858 9.41077 179.886 9.41077C186.17 9.41077 188.559 13.0525 188.559 17.2083V27.5772C188.559 29.4622 188.768 30.7049 188.81 30.9189H184.285C184.243 30.7903 184.075 29.9336 184.075 28.2625C183.112 29.8479 181.101 31.5616 177.791 31.5616C173.517 31.5616 170.878 28.5625 170.878 25.2635C170.878 21.5357 173.559 19.4793 177.036 18.9653Z" fill="#F2F2F2"/>
<path fill-rule="evenodd" clip-rule="evenodd" d="M198.887 30.5068H194.083V10.0004H198.763V12.7373C200.088 10.3795 202.49 9.41077 204.726 9.41077C209.654 9.41077 212.015 13.0321 212.015 17.5379V30.5068H207.211V18.3796C207.211 15.8531 206.093 13.8321 203.07 13.8321C200.337 13.8321 198.887 15.9796 198.887 18.6744V30.5068Z" fill="#F2F2F2"/>
<path fill-rule="evenodd" clip-rule="evenodd" d="M231.619 20.4509C231.619 16.954 229.415 14.6788 226.422 14.6788C223.345 14.6788 221.141 16.954 221.141 20.4509C221.141 24.0323 223.261 26.2652 226.422 26.2652C229.498 26.2652 231.619 23.99 231.619 20.4509ZM220.684 31.3208C221.016 33.849 222.97 35.7449 225.756 35.7449C229.581 35.7449 231.494 33.7648 231.494 29.5936V27.445C230.621 29.0459 228.583 30.4364 225.631 30.4364C220.226 30.4364 216.276 26.223 216.276 20.451C216.276 14.9739 220.06 10.4655 225.631 10.4655C228.791 10.4655 230.746 11.7718 231.619 13.4572V10.8451H236.276V29.4252C236.276 34.9022 233.49 40 225.881 40C220.517 40 216.775 36.6294 216.234 32.5008L220.684 31.3208Z" fill="#F2F2F2"/>
<path fill-rule="evenodd" clip-rule="evenodd" d="M255.599 18.1939C255.515 15.7515 253.912 13.5667 250.536 13.5667C247.457 13.5667 245.684 15.9658 245.516 18.1939H255.599ZM260.283 24.9635C259.186 28.6055 255.937 31.5616 251 31.5616C245.431 31.5616 240.495 27.4485 240.495 20.379C240.495 13.7809 245.305 9.41077 250.494 9.41077C256.823 9.41077 260.536 13.6522 260.536 20.2504C260.536 21.0647 260.451 21.7501 260.409 21.836H245.389C245.516 25.0061 247.963 27.2772 251 27.2772C253.954 27.2772 255.473 25.6918 256.148 23.6351L260.283 24.9635Z" fill="#F2F2F2"/>
<path fill-rule="evenodd" clip-rule="evenodd" d="M263.701 30.5068H268.975V3.08191H263.701V30.5068Z" fill="#F2F2F2"/>
<path fill-rule="evenodd" clip-rule="evenodd" d="M11.0753 28.7333C12.344 28.7333 13.3764 29.7654 13.3764 31.0341C13.3764 32.0989 12.6485 32.9943 11.665 33.2557C11.6351 33.2636 11.6051 33.2722 11.5748 33.2789C11.4137 33.3147 11.2471 33.3351 11.0753 33.3351C9.95702 33.3351 9.02338 32.5324 8.81764 31.4731C8.79013 31.3309 8.77454 31.1845 8.77454 31.0341C8.77454 29.7654 9.80692 28.7333 11.0753 28.7333ZM11.1865 35.7753C12.5408 35.7435 13.7538 35.1425 14.6 34.2021C14.8929 33.8765 15.1405 33.5112 15.3353 33.1141C15.6437 32.485 15.822 31.7809 15.822 31.0341C15.822 28.4169 13.6924 26.2876 11.0752 26.2876C9.37666 26.2876 7.88816 27.1873 7.04899 28.5324C6.94107 28.7058 6.84325 28.8858 6.75795 29.0732C6.48495 29.6718 6.32874 30.3346 6.32874 31.0341C6.32874 31.6675 6.45561 32.2713 6.68183 32.8243C6.72035 32.9181 6.76407 33.0089 6.80839 33.0997C7.12052 33.7417 7.57053 34.3039 8.12356 34.7448C8.32991 34.9092 8.54911 35.0578 8.78114 35.1865C9.46196 35.5641 10.2434 35.7808 11.0752 35.7808C11.1128 35.7808 11.1492 35.7759 11.1865 35.7753Z" fill="#40CDA0"/>
<path fill-rule="evenodd" clip-rule="evenodd" d="M276.844 23.7866C277.014 25.665 278.418 27.3298 281.055 27.3298C283.097 27.3298 284.161 26.2199 284.161 24.9393C284.161 23.8291 283.395 22.9753 281.736 22.6338L278.673 21.951C275.015 21.14 273.101 18.7495 273.101 15.8893C273.101 12.261 276.419 9.18768 280.715 9.18768C286.5 9.18768 288.372 12.9439 288.712 14.993L284.544 16.1882C284.374 14.993 283.48 13.0721 280.715 13.0721C278.971 13.0721 277.738 14.182 277.738 15.4623C277.738 16.5725 278.546 17.3835 279.822 17.6396L282.97 18.2799C286.883 19.1337 288.925 21.5242 288.925 24.5976C288.925 27.7563 286.373 31.2567 281.098 31.2567C275.1 31.2567 272.803 27.3298 272.548 24.9818L276.844 23.7866Z" fill="#F2F2F2"/>
<path fill-rule="evenodd" clip-rule="evenodd" d="M18.2377 1.02402C8.18132 1.02402 0 9.234 0 19.3256C0 25.5119 3.07734 30.987 7.7734 34.3014C7.24099 33.8755 6.80776 33.3323 6.50727 32.7121C6.2415 32.4265 5.99605 32.1226 5.7709 31.8028C3.65096 29.4285 2.35863 26.2955 2.35863 22.8644C2.35863 22.2968 2.39806 21.7386 2.46664 21.1893C2.39542 20.5773 2.35451 19.9565 2.35451 19.3256C2.35451 10.5371 9.47983 3.38677 18.2377 3.38677C26.9956 3.38677 34.1206 10.5371 34.1206 19.3256C34.1206 26.9544 28.7512 33.345 21.6064 34.9C19.8294 35.7784 17.8324 36.2743 15.7216 36.2743C13.9543 36.2743 12.2676 35.9252 10.7221 35.297C10.6862 35.2976 10.6512 35.3023 10.615 35.3023C9.81417 35.3023 9.06191 35.0929 8.40647 34.7281C11.2457 36.5596 14.6188 37.6272 18.2377 37.6272C28.2938 37.6272 36.4751 29.417 36.4751 19.3256C36.4751 9.234 28.2938 1.02402 18.2377 1.02402Z" fill="#F2F2F2"/>
<path fill-rule="evenodd" clip-rule="evenodd" d="M17.6262 34.515C19.732 32.9285 21.0958 30.4136 21.0958 27.5868C21.0958 22.7992 17.1851 18.904 12.3782 18.904C8.65024 18.904 5.46304 21.2472 4.21899 24.5321C4.39008 26.3669 5.00622 28.0736 5.95788 29.5471C6.04206 29.3629 6.13862 29.1859 6.24513 29.0155C6.13741 28.5557 6.07435 28.079 6.07435 27.5868C6.07435 24.1249 8.90219 21.3083 12.3782 21.3083C15.8541 21.3083 18.682 24.1249 18.682 27.5868C18.682 30.3352 16.8972 32.6709 14.4236 33.5196C14.2314 33.91 13.987 34.2692 13.6979 34.5892C14.2706 34.6785 14.8569 34.726 15.4543 34.726C16.1972 34.726 16.9229 34.6521 17.6262 34.515Z" fill="#F2F2F2"/>
<path fill-rule="evenodd" clip-rule="evenodd" d="M5.27405 31.5616C5.59656 31.9327 5.94816 32.2852 6.32885 32.6164C6.26772 32.5147 6.20743 32.413 6.15431 32.3078C5.8512 32.0666 5.55735 31.8186 5.27405 31.5616Z" fill="#F2F2F2"/>
<path fill-rule="evenodd" clip-rule="evenodd" d="M6.08278 33.0715C5.86789 32.5462 5.74738 31.9727 5.74738 31.371C5.74738 30.7065 5.89577 30.077 6.15509 29.5084C5.23919 28.0846 4.64621 26.4354 4.48155 24.6626C4.45077 24.3292 4.43277 23.9921 4.43277 23.6506C4.43277 17.6612 9.30528 12.7887 15.2946 12.7887C21.2837 12.7887 26.1565 17.6612 26.1565 23.6506C26.1565 28.9247 22.377 33.3311 17.3849 34.3086C16.708 34.441 16.0096 34.5124 15.2946 34.5124C14.7197 34.5124 14.1554 34.4666 13.6043 34.3803C12.8005 35.2736 11.6482 35.8445 10.3617 35.8747C11.8866 36.4923 13.5508 36.8356 15.2946 36.8356C17.3773 36.8356 19.3477 36.348 21.1011 35.4844C25.4671 33.3334 28.4797 28.8379 28.4797 23.6506C28.4797 16.3803 22.5649 10.4655 15.2946 10.4655C8.58249 10.4655 3.02988 15.5082 2.21619 22.0035C2.14853 22.5436 2.10962 23.0924 2.10962 23.6506C2.10962 27.0241 3.38474 30.1046 5.47644 32.439C5.67158 32.6568 5.87399 32.8671 6.08278 33.0715Z" fill="#F2F2F2"/>
</svg>
