<?xml version="1.0" encoding="utf-8"?>
<!-- Generator: Adobe Illustrator 23.0.2, SVG Export Plug-In . SVG Version: 6.00 Build 0)  -->
<svg version="1.1" xmlns="http://www.w3.org/2000/svg" xmlns:xlink="http://www.w3.org/1999/xlink" x="0px" y="0px"
	 viewBox="0 0 282.45 287.41" style="enable-background:new 0 0 282.45 287.41;" xml:space="preserve">
<style type="text/css">
	.st0{fill:url(#SVGID_1_);}
	.st1{fill:url(#SVGID_2_);}
	.st2{fill:url(#SVGID_3_);}
	.st3{fill:url(#SVGID_4_);}
	.st4{fill:url(#SVGID_5_);}
	.st5{fill:url(#SVGID_6_);}
	.st6{fill:url(#SVGID_7_);}
	.st7{fill:url(#SVGID_8_);}
	.st8{fill:url(#SVGID_9_);}
	.st9{fill:url(#SVGID_10_);}
	.st10{fill:url(#SVGID_11_);}
	.st11{fill:url(#SVGID_12_);}
	.st12{fill:url(#SVGID_13_);}
	.st13{fill:#864755;}
	.st14{fill:url(#SVGID_14_);}
	.st15{fill:url(#SVGID_15_);}
	.st16{fill:url(#SVGID_16_);}
</style>
<g id="Layer_3">
	<linearGradient id="SVGID_1_" gradientUnits="userSpaceOnUse" x1="143.6974" y1="204.2511" x2="140.3137" y2="10.3993">
		<stop  offset="0" style="stop-color:#268F97"/>
		<stop  offset="0.0102" style="stop-color:#2E8F97"/>
		<stop  offset="0.376" style="stop-color:#9E7485"/>
		<stop  offset="0.5368" style="stop-color:#B45876"/>
		<stop  offset="0.9992" style="stop-color:#FAC075"/>
	</linearGradient>
	<path class="st0" d="M216.3,96.87c7.33,0.77,14.67,1.42,21.98,1.98c0.82,0.06,1.64,0.12,2.45,0.18c1.85,0.14,3.7,0.28,5.55,0.4
		c0.32,0.02,0.64,0.04,0.95,0.06c8.23,0.53,16.45,0.93,24.65,1.21c-5.93-3.71-11.94-7.32-18.04-10.81
		c-1.49-0.85-2.98-1.69-4.48-2.53c-1.15-0.65-2.31-1.29-3.46-1.92c-3.69-2.03-7.4-4.03-11.15-5.98c0,0,0,0,0,0c0,0,0,0,0,0
		c-11.18-25.63-34.2-45.64-63.66-51.79c-6.74-1.41-13.47-2.01-20.07-1.88c-7.23-5.83-15.13-10.92-23.61-15.15
		c-11.61,4.1-22.26,10.55-31.25,18.91c-1.17-0.25-2.35-0.51-3.52-0.76c-0.99-0.21-1.97-0.4-2.96-0.6c-0.96-0.19-1.92-0.39-2.88-0.58
		c-10.14-2-20.27-3.71-30.38-5.14c-15.38-2.17-30.72-3.67-46-4.53C30.07,34.98,50.6,51.08,71.98,66.17
		c0.45,0.32,4.13,2.91,4.24,2.98c-0.01,0.02-0.02,0.04-0.03,0.06c-1.85,3.1-3.53,6.33-5.01,9.68c-1.15,2.59-2.17,5.25-3.08,7.98
		c-1.07,3.23-1.98,6.56-2.69,9.98c-10.08,48.3,20.9,95.62,69.2,105.7c15.83,3.3,31.52,1.29,45.25-4.81
		c16.23-7.2,29.7-20.13,37.37-36.78c-7.95,7.23-17.16,12.99-27.17,16.97c-1.44,0.57-2.89,1.11-4.36,1.61
		c2.4-4.21,4.2-8.86,5.25-13.87c0.26-1.26,0.46-2.52,0.62-3.78c-15.24,5.66-32.2,7.24-49.29,3.67c-17.05-3.56-31.93-11.76-43.62-23
		c5.48-18.77,21.76-31.91,40.51-33.95c4.85-0.53,9.86-0.33,14.9,0.72c15.27,3.19,30.43,1.83,44.09-3.13
		C204.58,103.87,210.68,100.72,216.3,96.87L216.3,96.87L216.3,96.87z"/>
</g>
<g id="cmyk_coloradjust">
	<g>
		<linearGradient id="SVGID_2_" gradientUnits="userSpaceOnUse" x1="123.709" y1="33.8763" x2="123.3044" y2="10.6962">
			<stop  offset="0" style="stop-color:#DF9D76"/>
			<stop  offset="1" style="stop-color:#FBC679"/>
		</linearGradient>
		<path class="st1" d="M151.03,25.77c-7.23-5.83-15.13-10.92-23.61-15.15c-11.61,4.1-22.26,10.55-31.25,18.91
			c6.44,1.39,12.84,2.88,19.18,4.48C126.37,28.92,138.49,26.02,151.03,25.77z"/>
		<linearGradient id="SVGID_3_" gradientUnits="userSpaceOnUse" x1="73.2179" y1="131.4316" x2="72.3005" y2="78.8721">
			<stop  offset="0" style="stop-color:#825667"/>
			<stop  offset="1" style="stop-color:#923E5C"/>
		</linearGradient>
		<path class="st2" d="M77.06,114.67c0.2-0.98,0.44-1.95,0.68-2.91c-4.19-10.28-6.49-21.41-6.58-32.87
			c-1.15,2.59-2.17,5.25-3.08,7.98c-1.43,15.63,1.32,30.89,7.43,44.51C75.41,125.89,75.89,120.29,77.06,114.67z"/>
		<polygon points="216.3,96.87 216.3,96.87 216.3,96.87 		"/>
		<linearGradient id="SVGID_4_" gradientUnits="userSpaceOnUse" x1="83.0365" y1="111.6698" x2="82.2925" y2="69.0421">
			<stop  offset="0" style="stop-color:#984966"/>
			<stop  offset="1" style="stop-color:#AF6973"/>
		</linearGradient>
		<path class="st3" d="M76.41,69.28c-0.06-0.04-0.12-0.09-0.18-0.13c-0.01,0.02-0.03,0.04-0.04,0.06c-1.85,3.1-3.53,6.33-5.01,9.68
			c0.09,11.47,2.39,22.59,6.58,32.87c2.94-11.74,8.55-22.15,16.05-30.73C87.94,77.19,82.15,73.27,76.41,69.28z"/>
		<linearGradient id="SVGID_5_" gradientUnits="userSpaceOnUse" x1="244.1412" y1="101.1822" x2="243.7592" y2="79.2955">
			<stop  offset="0" style="stop-color:#9C4464"/>
			<stop  offset="1" style="stop-color:#B05B71"/>
		</linearGradient>
		<path class="st4" d="M253.86,89.89c-1.49-0.85-2.98-1.69-4.48-2.53c-1.15-0.65-2.31-1.29-3.46-1.92
			c-3.69-2.03-7.4-4.03-11.15-5.98c0,0,0,0,0,0c-5.22,6.78-11.48,12.64-18.46,17.42c7.34,0.77,14.66,1.42,21.98,1.98
			c0.82,0.06,1.64,0.12,2.45,0.18c1.85,0.14,3.7,0.28,5.55,0.4c0.32,0.02,0.64,0.04,0.95,0.06c8.23,0.53,16.45,0.93,24.65,1.21
			C265.96,96.99,259.95,93.38,253.86,89.89z"/>
		<path d="M136.29,39.75c0.02,0,0.03,0.01,0.05,0.01C136.32,39.76,136.3,39.75,136.29,39.75z"/>
		<linearGradient id="SVGID_6_" gradientUnits="userSpaceOnUse" x1="176.2839" y1="203.6823" x2="175.5509" y2="161.6923">
			<stop  offset="0" style="stop-color:#0F7D8A"/>
			<stop  offset="1" style="stop-color:#6E7E89"/>
		</linearGradient>
		<path class="st5" d="M190.04,177.94c-1.44,0.57-2.89,1.11-4.36,1.61c-9.96,17.46-30.35,27.34-51.09,23.01
			c15.83,3.3,31.52,1.29,45.25-4.81c16.23-7.2,29.7-20.13,37.37-36.78C209.25,168.2,200.04,173.95,190.04,177.94z"/>
		<linearGradient id="SVGID_7_" gradientUnits="userSpaceOnUse" x1="105.6881" y1="203.0604" x2="104.4283" y2="130.8868">
			<stop  offset="0" style="stop-color:#2C7E8B"/>
			<stop  offset="1" style="stop-color:#936C7E"/>
		</linearGradient>
		<path class="st6" d="M96.98,161.03c-9.12-8.31-16.43-18.42-21.46-29.64c0.67,33.84,24.54,63.96,59.08,71.16
			C113.86,198.23,99.12,181.01,96.98,161.03z"/>
		<linearGradient id="SVGID_8_" gradientUnits="userSpaceOnUse" x1="87.5049" y1="161.1928" x2="86.6394" y2="111.6069">
			<stop  offset="0" style="stop-color:#757783"/>
			<stop  offset="1" style="stop-color:#9A546E"/>
		</linearGradient>
		<path class="st7" d="M98.64,142.57c-9.04-8.69-16.17-19.21-20.89-30.81c-0.24,0.96-0.48,1.93-0.68,2.91
			c-1.17,5.62-1.65,11.22-1.54,16.72c5.03,11.22,12.34,21.33,21.46,29.64c-0.52-4.82-0.31-9.8,0.74-14.81
			C97.98,144.98,98.29,143.76,98.64,142.57z"/>
		<linearGradient id="SVGID_9_" gradientUnits="userSpaceOnUse" x1="141.9137" y1="203.6195" x2="141.1567" y2="160.2563">
			<stop  offset="0" style="stop-color:#106671"/>
			<stop  offset="1" style="stop-color:#5C6873"/>
		</linearGradient>
		<path class="st8" d="M185.68,179.54c-14.6,4.95-30.68,6.19-46.87,2.82c-16.19-3.38-30.43-10.95-41.83-21.33
			c2.14,19.99,16.88,37.2,37.62,41.53C155.33,206.88,175.73,197,185.68,179.54z"/>
		<linearGradient id="SVGID_10_" gradientUnits="userSpaceOnUse" x1="144.573" y1="184.4906" x2="143.8274" y2="141.7786">
			<stop  offset="0" style="stop-color:#35606A"/>
			<stop  offset="1" style="stop-color:#625968"/>
		</linearGradient>
		<path class="st9" d="M191.55,161.89c-15.24,5.66-32.2,7.24-49.29,3.67c-17.05-3.56-31.93-11.76-43.62-23
			c-0.35,1.2-0.67,2.41-0.93,3.65c-1.04,5-1.25,9.99-0.74,14.81c11.4,10.38,25.64,17.95,41.83,21.33
			c16.19,3.38,32.27,2.14,46.87-2.82c2.4-4.21,4.2-8.86,5.25-13.87C191.2,164.41,191.39,163.15,191.55,161.89z"/>
		<linearGradient id="SVGID_11_" gradientUnits="userSpaceOnUse" x1="61.4574" y1="92.9546" x2="60.1328" y2="17.0686">
			<stop  offset="0" style="stop-color:#A8576C"/>
			<stop  offset="1" style="stop-color:#F7C77F"/>
		</linearGradient>
		<path class="st10" d="M94.78,79.93c-2.83-2.47-5.55-5.04-8.15-7.73c-2.5-2.59-4.89-5.28-7.17-8.06c-1.42-1.74-2.8-3.51-4.13-5.31
			c-0.52-0.7-1.03-1.41-1.54-2.13c-7.4-10.47-13.27-22-17.36-34.23c-15.38-2.17-30.72-3.67-46-4.53
			C30.07,34.98,50.6,51.08,71.98,66.17c0.45,0.32,4.26,2.99,4.42,3.1c5.74,3.99,11.53,7.91,17.39,11.76
			c5.73,3.76,11.51,7.44,17.35,11.05C105.35,88.45,99.88,84.38,94.78,79.93z"/>
		<linearGradient id="SVGID_12_" gradientUnits="userSpaceOnUse" x1="107.5084" y1="97.3545" x2="106.186" y2="21.5942">
			<stop  offset="0" style="stop-color:#BA5477"/>
			<stop  offset="1" style="stop-color:#F4C184"/>
		</linearGradient>
		<path class="st11" d="M154.18,55.71c-3.33-7.41-9.68-13.35-17.84-15.94c-0.02,0-0.03-0.01-0.05-0.01
			c-0.51-0.16-1.02-0.3-1.54-0.44c-6.41-1.87-12.87-3.64-19.4-5.29c-6.34-1.6-12.73-3.1-19.18-4.48c-1.17-0.25-2.35-0.51-3.52-0.76
			c-0.99-0.21-1.97-0.4-2.96-0.6c-0.96-0.19-1.92-0.39-2.88-0.58c-10.14-2-20.27-3.71-30.38-5.14c4.09,12.23,9.96,23.76,17.36,34.23
			c0.51,0.71,1.02,1.42,1.54,2.13c1.33,1.8,2.71,3.57,4.13,5.31c2.28,2.78,4.67,5.47,7.17,8.06c2.6,2.69,5.32,5.27,8.15,7.73
			c5.1,4.45,10.57,8.52,16.37,12.16c0.2,0.12,0.4,0.25,0.6,0.37c0.17,0.11,0.35,0.21,0.52,0.32c2.76,1.67,5.84,2.91,9.17,3.61
			c1.13,0.24,2.26,0.4,3.38,0.5c9.55,0.87,18.67-3.02,24.7-9.93c3.2-3.66,5.53-8.17,6.6-13.27
			C157.44,67.39,156.62,61.15,154.18,55.71z"/>
		<linearGradient id="SVGID_13_" gradientUnits="userSpaceOnUse" x1="175.7696" y1="97.5795" x2="174.509" y2="25.3643">
			<stop  offset="0" style="stop-color:#A84C6F"/>
			<stop  offset="0.9997" style="stop-color:#EFB483"/>
		</linearGradient>
		<path class="st12" d="M171.1,27.66c-6.74-1.41-13.47-2.01-20.07-1.88c-12.54,0.24-24.66,3.14-35.68,8.25
			c7.04,1.78,14.02,3.69,20.94,5.73c0.02,0,0.03,0.01,0.05,0.01c8.16,2.59,14.51,8.53,17.84,15.94c3.57,0.22,7.17,0.68,10.77,1.44
			c6.38,1.33,12.39,3.45,17.96,6.22c3.01,1.5,5.89,3.19,8.63,5.06c4.13,2.81,7.94,6.01,11.39,9.54c5.42,5.57,9.93,11.96,13.38,18.91
			c0,0,0,0,0,0c6.98-4.78,13.24-10.64,18.46-17.42c0,0,0,0,0,0C223.58,53.82,200.56,33.81,171.1,27.66z"/>
		<path class="st13" d="M202.93,77.97c-3.44-3.53-7.26-6.73-11.39-9.54c-1.75,0.48-3.32,1.47-4.5,2.84
			c-0.96,1.12-1.66,2.49-1.98,4.03c-1.02,4.89,2.12,9.69,7.01,10.71c0.35,0.07,0.69,0.12,1.03,0.15c4.52,0.41,8.73-2.61,9.68-7.16
			C202.85,78.66,202.9,78.31,202.93,77.97z"/>
		<linearGradient id="SVGID_14_" gradientUnits="userSpaceOnUse" x1="170.8122" y1="111.0696" x2="169.8411" y2="55.4327">
			<stop  offset="5.967317e-04" style="stop-color:#944260"/>
			<stop  offset="1" style="stop-color:#C07B79"/>
		</linearGradient>
		<path class="st14" d="M216.3,96.87c-3.45-6.95-7.95-13.34-13.38-18.91c-0.03,0.34-0.08,0.69-0.15,1.03
			c-0.95,4.55-5.16,7.58-9.68,7.16c-0.04,0-0.08,0-0.12-0.01c-0.3-0.03-0.61-0.08-0.92-0.14s-0.6-0.14-0.9-0.23
			c-4.37-1.39-7.07-5.89-6.12-10.48c0.09-0.41,0.21-0.8,0.34-1.18c0.02-0.04,0.03-0.09,0.05-0.13c0.38-1.01,0.92-1.93,1.59-2.72
			c1.18-1.38,2.75-2.37,4.5-2.84c-2.74-1.87-5.62-3.56-8.63-5.06c-5.57-2.77-11.58-4.89-17.96-6.22c-3.6-0.75-7.2-1.22-10.77-1.44
			c2.45,5.45,3.26,11.68,1.95,17.98c-1.06,5.1-3.4,9.61-6.6,13.27c-6.03,6.91-15.15,10.8-24.7,9.93
			c8.57,5.88,18.42,10.2,29.23,12.46c15.27,3.19,30.43,1.83,44.09-3.13C204.58,103.87,210.68,100.72,216.3,96.87
			C216.3,96.87,216.3,96.87,216.3,96.87z"/>
		<linearGradient id="SVGID_15_" gradientUnits="userSpaceOnUse" x1="116.4544" y1="142.2564" x2="115.3792" y2="80.6578">
			<stop  offset="0" style="stop-color:#795F6C"/>
			<stop  offset="1" style="stop-color:#954160"/>
		</linearGradient>
		<path class="st15" d="M124.83,96.88c-1.12-0.1-2.25-0.26-3.38-0.5c-3.33-0.7-6.41-1.94-9.17-3.61c-0.17-0.11-0.35-0.21-0.52-0.32
			c-0.2-0.12-0.4-0.25-0.6-0.37c-5.84-3.61-11.62-7.3-17.35-11.05c-7.5,8.58-13.11,18.99-16.05,30.73
			c4.73,11.6,11.86,22.11,20.89,30.81c5.48-18.77,21.76-31.91,40.51-33.95c4.85-0.53,9.86-0.33,14.9,0.72
			C143.24,107.08,133.4,102.76,124.83,96.88z"/>
		<linearGradient id="SVGID_16_" gradientUnits="userSpaceOnUse" x1="97.702" y1="202.141" x2="95.6816" y2="86.3951">
			<stop  offset="0" style="stop-color:#24656F"/>
			<stop  offset="0.5044" style="stop-color:#6E5D69"/>
			<stop  offset="0.9997" style="stop-color:#803B53"/>
		</linearGradient>
		<path class="st16" d="M130.39,201.54c-32.25-8.69-54.22-37.7-54.87-70.14c-6.11-13.63-8.86-28.88-7.43-44.51
			c-1.07,3.23-1.98,6.56-2.69,9.98c-9.79,46.88,19.12,92.84,64.99,104.72V201.54z"/>
	</g>
</g>
<g id="name">
</g>
</svg>
